<svg width="119" height="280" viewBox="0 0 119 280" fill="none" xmlns="http://www.w3.org/2000/svg">
<path d="M54.5796 0.359131H68.3971V40.8836H54.5796V0.359131Z" fill="#4D4D4D"/>
<path d="M68.5701 0.359131H82.3877V40.8836H68.5701V0.359131Z" fill="#333333"/>
<path d="M40.7618 0.359131H54.5796V40.8836H40.7618V0.359131Z" fill="#666666"/>
<path d="M0 68.8198H39.0347V300.413H0V68.8198Z" fill="#666666"/>
<path d="M84.9785 68.8198H118.832V300.413H84.9785V68.8198Z" fill="#333333"/>
<path d="M39.0348 68.8198H84.9784V300.413H39.0348V68.8198Z" fill="#4D4D4D"/>
<path opacity="0.4" d="M109.159 75.7173H114.168V297.308H109.159V75.7173Z" fill="#E6E6E6"/>
<path opacity="0.4" d="M99.3141 75.7173H104.323V297.308H99.3141V75.7173Z" fill="#E6E6E6"/>
<path opacity="0.4" d="M89.469 75.7173H94.478V297.308H89.469V75.7173Z" fill="#E6E6E6"/>
<path d="M31.2623 75.7173H36.2712V297.308H31.2623V75.7173Z" fill="#E6E6E6"/>
<path d="M21.4172 75.7173H26.4263V297.308H21.4172V75.7173Z" fill="#E6E6E6"/>
<path d="M2.59082 75.7173H7.59973V297.308H2.59082V75.7173Z" fill="#E6E6E6"/>
<path d="M11.7449 75.7173H16.7539V297.308H11.7449V75.7173Z" fill="#E6E6E6"/>
<path d="M79.106 297.308H44.5618V75.7173H79.106V297.308ZM73.7516 79.5111H50.2615V293.514H73.7516V79.5111Z" fill="#E6E6E6"/>
<path d="M69.4336 289.893H54.5796V83.1326H69.4336V289.893ZM64.252 87.961H62.352H61.4884H59.5885V285.065H61.4884H62.352H64.252V87.961Z" fill="#E6E6E6"/>
<path d="M61.4884 87.9607H62.3519V285.065H61.4884V87.9607Z" fill="#E6E6E6"/>
<path d="M44.2163 28.2952H78.7605V68.8197H44.2163V28.2952Z" fill="#4D4D4D"/>
<path d="M44.2163 28.2952H78.7605V68.8197H44.2163V28.2952Z" fill="#4D4D4D"/>
<path d="M9.67236 28.2952H44.2163V68.8197H9.67236V28.2952Z" fill="#666666"/>
<path d="M78.5876 28.2952H113.132V68.8197H78.5876V28.2952Z" fill="#333333"/>
<path d="M40.5894 0.359131H82.3877L68.3973 7.77429H54.5797L40.5894 0.359131Z" fill="#808080"/>
</svg>
