<svg width="132" height="232" viewBox="0 0 132 232" fill="none" xmlns="http://www.w3.org/2000/svg">
<path d="M44.1469 12.5425H131.371V233.789H44.1469V12.5425Z" fill="#333333"/>
<path opacity="0.46" d="M105.981 22.5443H127.053V26.5106H105.981V22.5443Z" fill="#E6E6E6"/>
<path opacity="0.34" d="M77.1364 22.5443H98.2084V26.5106H77.1364V22.5443Z" fill="#E6E6E6"/>
<path opacity="0.52" d="M48.4648 22.5443H69.5367V26.5106H48.4648V22.5443Z" fill="#E6E6E6"/>
<path opacity="0.54" d="M105.981 31.6838H127.053V35.65H105.981V31.6838Z" fill="#E6E6E6"/>
<path opacity="0.3" d="M77.1364 31.6838H98.2084V35.65H77.1364V31.6838Z" fill="#E6E6E6"/>
<path opacity="0.06" d="M48.4648 31.6838H69.5367V35.65H48.4648V31.6838Z" fill="#E6E6E6"/>
<path opacity="0.15" d="M105.981 40.8235H127.053V44.7897H105.981V40.8235Z" fill="#E6E6E6"/>
<path opacity="0.42" d="M77.1364 40.8235H98.2084V44.7897H77.1364V40.8235Z" fill="#E6E6E6"/>
<path opacity="0.48" d="M48.4648 40.8235H69.5367V44.7897H48.4648V40.8235Z" fill="#E6E6E6"/>
<path opacity="0.18" d="M105.981 49.9629H127.053V53.9292H105.981V49.9629Z" fill="#E6E6E6"/>
<path opacity="0.28" d="M48.4648 49.9629H69.5367V53.9292H48.4648V49.9629Z" fill="#E6E6E6"/>
<path opacity="0.29" d="M105.981 59.1024H127.053V63.0687H105.981V59.1024Z" fill="#E6E6E6"/>
<path opacity="0.28" d="M77.1364 59.1024H98.2084V63.0687H77.1364V59.1024Z" fill="#E6E6E6"/>
<path opacity="0.56" d="M48.4648 59.1024H69.5367V63.0687H48.4648V59.1024Z" fill="#E6E6E6"/>
<path opacity="0.41" d="M105.981 68.2422H127.053V72.2084H105.981V68.2422Z" fill="#E6E6E6"/>
<path opacity="0.16" d="M77.1364 68.2422H98.2084V72.2084H77.1364V68.2422Z" fill="#E6E6E6"/>
<path opacity="0.4" d="M48.4648 68.2422H69.5367V72.2084H48.4648V68.2422Z" fill="#E6E6E6"/>
<path opacity="0.1" d="M105.981 77.3818H127.053V81.348H105.981V77.3818Z" fill="#E6E6E6"/>
<path opacity="0.17" d="M77.1364 77.3818H98.2084V81.348H77.1364V77.3818Z" fill="#E6E6E6"/>
<path opacity="0.08" d="M48.4648 77.3818H69.5367V81.348H48.4648V77.3818Z" fill="#E6E6E6"/>
<path opacity="0.49" d="M105.981 86.5212H127.053V90.4875H105.981V86.5212Z" fill="#E6E6E6"/>
<path opacity="0.58" d="M77.1364 86.5212H98.2084V90.4875H77.1364V86.5212Z" fill="#E6E6E6"/>
<path opacity="0.58" d="M48.4648 86.5212H69.5367V90.4875H48.4648V86.5212Z" fill="#E6E6E6"/>
<path opacity="0.26" d="M105.981 95.6608H127.053V99.627H105.981V95.6608Z" fill="#E6E6E6"/>
<path opacity="0.37" d="M77.1364 95.6608H98.2084V99.627H77.1364V95.6608Z" fill="#E6E6E6"/>
<path opacity="0.34" d="M48.4648 95.6608H69.5367V99.627H48.4648V95.6608Z" fill="#E6E6E6"/>
<path opacity="0.55" d="M105.981 104.8H127.053V108.766H105.981V104.8Z" fill="#E6E6E6"/>
<path opacity="0.12" d="M77.1364 104.8H98.2084V108.766H77.1364V104.8Z" fill="#E6E6E6"/>
<path opacity="0.6" d="M48.4648 104.8H69.5367V108.766H48.4648V104.8Z" fill="#E6E6E6"/>
<path opacity="0.02" d="M105.981 113.94H127.053V117.906H105.981V113.94Z" fill="#E6E6E6"/>
<path opacity="0.28" d="M77.1364 113.94H98.2084V117.906H77.1364V113.94Z" fill="#E6E6E6"/>
<path opacity="0.21" d="M48.4648 113.94H69.5367V117.906H48.4648V113.94Z" fill="#E6E6E6"/>
<path opacity="0.57" d="M105.981 123.079H127.053V127.046H105.981V123.079Z" fill="#E6E6E6"/>
<path opacity="0.38" d="M77.1364 123.079H98.2084V127.046H77.1364V123.079Z" fill="#E6E6E6"/>
<path opacity="0.25" d="M48.4648 123.079H69.5367V127.046H48.4648V123.079Z" fill="#E6E6E6"/>
<path opacity="0.15" d="M105.981 132.219H127.053V136.185H105.981V132.219Z" fill="#E6E6E6"/>
<path opacity="0.47" d="M77.1364 132.219H98.2084V136.185H77.1364V132.219Z" fill="#E6E6E6"/>
<path opacity="0.3" d="M48.4648 132.219H69.5367V136.185H48.4648V132.219Z" fill="#E6E6E6"/>
<path opacity="0.4" d="M105.981 141.358H127.053V145.325H105.981V141.358Z" fill="#E6E6E6"/>
<path opacity="0.39" d="M77.1364 141.358H98.2084V145.325H77.1364V141.358Z" fill="#E6E6E6"/>
<path opacity="0.24" d="M48.4648 141.358H69.5367V145.325H48.4648V141.358Z" fill="#E6E6E6"/>
<path opacity="0.46" d="M105.981 150.498H127.053V154.464H105.981V150.498Z" fill="#E6E6E6"/>
<path opacity="0.22" d="M77.1364 150.498H98.2084V154.464H77.1364V150.498Z" fill="#E6E6E6"/>
<path opacity="0.11" d="M48.4648 150.498H69.5367V154.464H48.4648V150.498Z" fill="#E6E6E6"/>
<path opacity="0.11" d="M77.1364 159.638H98.2084V163.604H77.1364V159.638Z" fill="#E6E6E6"/>
<path opacity="0.02" d="M48.4648 159.638H69.5367V163.604H48.4648V159.638Z" fill="#E6E6E6"/>
<path opacity="0.27" d="M105.981 168.777H127.053V172.744H105.981V168.777Z" fill="#E6E6E6"/>
<path opacity="0.21" d="M77.1364 168.777H98.2084V172.744H77.1364V168.777Z" fill="#E6E6E6"/>
<path opacity="0.49" d="M48.4648 168.777H69.5367V172.744H48.4648V168.777Z" fill="#E6E6E6"/>
<path opacity="0.6" d="M105.981 177.917H127.053V181.883H105.981V177.917Z" fill="#E6E6E6"/>
<path opacity="0.31" d="M77.1364 177.917H98.2084V181.883H77.1364V177.917Z" fill="#E6E6E6"/>
<path opacity="0.22" d="M48.4648 177.917H69.5367V181.883H48.4648V177.917Z" fill="#E6E6E6"/>
<path opacity="0.54" d="M105.981 187.056H127.053V191.023H105.981V187.056Z" fill="#E6E6E6"/>
<path opacity="0.6" d="M77.1364 187.056H98.2084V191.023H77.1364V187.056Z" fill="#E6E6E6"/>
<path opacity="0.08" d="M48.4648 187.056H69.5367V191.023H48.4648V187.056Z" fill="#E6E6E6"/>
<path opacity="0.55" d="M77.1364 196.196H98.2084V200.162H77.1364V196.196Z" fill="#E6E6E6"/>
<path d="M48.4648 196.196H69.5367V200.162H48.4648V196.196Z" fill="#E6E6E6"/>
<path opacity="0.6" d="M104.599 22.5443H105.981V200.162H104.599V22.5443Z" fill="#E6E6E6"/>
<path opacity="0.6" d="M69.5367 22.5443H70.9185V200.162H69.5367V22.5443Z" fill="#E6E6E6"/>
<path d="M0.621399 12.5425H44.1469V233.789H0.621399V12.5425Z" fill="#4D4D4D"/>
<path opacity="0.69" d="M7.01202 22.5443H39.8289V26.5106H7.01202V22.5443Z" fill="#E6E6E6"/>
<path opacity="0.79" d="M7.01202 31.6838H39.8289V35.65H7.01202V31.6838Z" fill="#E6E6E6"/>
<path opacity="0.19" d="M7.01202 40.8235H39.8289V44.7897H7.01202V40.8235Z" fill="#E6E6E6"/>
<path opacity="0.88" d="M7.01202 49.9629H39.8289V53.9292H7.01202V49.9629Z" fill="#E6E6E6"/>
<path opacity="0.5" d="M7.01202 59.1024H39.8289V63.0687H7.01202V59.1024Z" fill="#E6E6E6"/>
<path opacity="0.25" d="M7.01202 68.2422H39.8289V72.2084H7.01202V68.2422Z" fill="#E6E6E6"/>
<path opacity="0.91" d="M7.01202 77.3818H39.8289V81.348H7.01202V77.3818Z" fill="#E6E6E6"/>
<path opacity="0.02" d="M7.01202 86.5212H39.8289V90.4875H7.01202V86.5212Z" fill="#E6E6E6"/>
<path opacity="0.53" d="M7.01202 95.6608H39.8289V99.627H7.01202V95.6608Z" fill="#E6E6E6"/>
<path opacity="0.65" d="M7.01202 104.8H39.8289V108.766H7.01202V104.8Z" fill="#E6E6E6"/>
<path d="M7.01202 113.94H39.8289V117.906H7.01202V113.94Z" fill="#E6E6E6"/>
<path opacity="0.8" d="M7.01202 123.079H39.8289V127.046H7.01202V123.079Z" fill="#E6E6E6"/>
<path opacity="0.82" d="M7.01202 132.219H39.8289V136.185H7.01202V132.219Z" fill="#E6E6E6"/>
<path opacity="0.75" d="M7.01202 141.358H39.8289V145.325H7.01202V141.358Z" fill="#E6E6E6"/>
<path opacity="0.31" d="M7.01202 150.498H39.8289V154.464H7.01202V150.498Z" fill="#E6E6E6"/>
<path opacity="0.22" d="M7.01202 159.638H39.8289V163.604H7.01202V159.638Z" fill="#E6E6E6"/>
<path opacity="0.43" d="M7.01202 168.777H39.8289V172.744H7.01202V168.777Z" fill="#E6E6E6"/>
<path opacity="0.68" d="M7.01202 177.917H39.8289V181.883H7.01202V177.917Z" fill="#E6E6E6"/>
<path opacity="0.38" d="M7.01202 187.056H39.8289V191.023H7.01202V187.056Z" fill="#E6E6E6"/>
<path opacity="0.84" d="M7.01202 196.196H39.8289V200.162H7.01202V196.196Z" fill="#E6E6E6"/>
<path d="M115.999 0.816162V12.5424H59.519V0.816162H115.999ZM103.39 8.7486H109.262V4.78238H103.39V8.7486ZM94.2358 8.7486H99.9356V4.78238H94.2358V8.7486ZM84.9089 8.7486H90.6087V4.78238H84.9089V8.7486ZM75.582 8.7486H81.4545V4.78238H75.582V8.7486ZM66.2551 8.7486H72.1276V4.78238H66.2551V8.7486Z" fill="#333333"/>
<path d="M49.1558 4.78247H50.7103V8.74866H49.1558V4.78247Z" fill="#333333"/>
<path d="M59.519 0.816162V12.5424H32.92V0.816162H59.519ZM49.1558 8.7486H54.8555V4.78238H49.1558V8.7486ZM36.8926 8.7486H42.5923V4.78238H36.8926V8.7486Z" fill="#4D4D4D"/>
<path d="M37.0652 4.78247H38.6199V8.74866H37.0652V4.78247Z" fill="#333333"/>
</svg>
