<svg width="83" height="267" viewBox="0 0 83 267" fill="none" xmlns="http://www.w3.org/2000/svg">
<path d="M38.713 0.637451H48.2126V36.6783H38.713V0.637451Z" fill="#4D4D4D"/>
<path d="M48.0399 0.637451H57.7123V36.6783H48.0399V0.637451Z" fill="#333333"/>
<path d="M28.868 0.637451H38.5402V36.6783H28.868V0.637451Z" fill="#666666"/>
<path d="M0.887268 61.3379H27.8317V266.892H0.887268V61.3379Z" fill="#666666"/>
<path d="M59.4394 61.3379H82.9294V266.892H59.4394V61.3379Z" fill="#333333"/>
<path d="M27.8317 61.3379H59.6122V266.892H27.8317V61.3379Z" fill="#4D4D4D"/>
<path opacity="0.6" d="M76.1933 67.3733H79.6478V264.132H76.1933V67.3733Z" fill="#E6E6E6"/>
<path opacity="0.6" d="M69.4572 67.3733H72.9117V264.132H69.4572V67.3733Z" fill="#E6E6E6"/>
<path opacity="0.6" d="M62.7211 67.3733H66.1755V264.132H62.7211V67.3733Z" fill="#E6E6E6"/>
<path d="M22.4774 67.3733H25.9317V264.132H22.4774V67.3733Z" fill="#E6E6E6"/>
<path d="M15.7412 67.3733H19.1956V264.132H15.7412V67.3733Z" fill="#E6E6E6"/>
<path d="M2.6145 67.3733H6.06903V264.132H2.6145V67.3733Z" fill="#E6E6E6"/>
<path d="M9.00519 67.3733H12.4595V264.132H9.00519V67.3733Z" fill="#E6E6E6"/>
<path opacity="0.8" d="M55.6396 264.132H31.8042V67.3733H55.6396V264.132ZM51.8398 70.8222H35.6041V260.684H51.8398V70.8222Z" fill="#E6E6E6"/>
<path opacity="0.8" d="M48.7308 257.407H38.5403V73.926H48.7308V257.407ZM45.2764 78.2371H44.0674H43.3765H41.9947V253.096H43.3765H44.0674H45.2764V78.2371Z" fill="#E6E6E6"/>
<path opacity="0.8" d="M43.3765 78.2373H44.0674V253.096H43.3765V78.2373Z" fill="#E6E6E6"/>
<path d="M31.4588 25.297H55.2941V61.338H31.4588V25.297Z" fill="#4D4D4D"/>
<path d="M31.4588 25.297H55.2941V61.338H31.4588V25.297Z" fill="#4D4D4D"/>
<path d="M7.62335 25.297H31.4588V61.338H7.62335V25.297Z" fill="#666666"/>
<path d="M55.2941 25.297H79.1296V61.338H55.2941V25.297Z" fill="#333333"/>
<path d="M29.0406 0.637451H57.7123L48.2126 7.19031H38.5403L29.0406 0.637451Z" fill="#808080"/>
</svg>
