<svg width="81" height="142" viewBox="0 0 81 142" fill="none" xmlns="http://www.w3.org/2000/svg">
<path d="M55.317 0.831787H103.679V149.651H55.317V0.831787Z" fill="#333333"/>
<path d="M0.219238 0.831787H55.1443V149.651H0.219238V0.831787Z" fill="#4D4D4D"/>
<path d="M55.317 13.4204H103.679V16.007H55.317V13.4204Z" fill="#4D4D4D"/>
<path d="M0.219238 13.4204H55.1443V16.007H0.219238V13.4204Z" fill="#333333"/>
<path opacity="0.32" d="M80.3614 18.9386H85.5431V24.1119H80.3614V18.9386Z" fill="white"/>
<path opacity="0.25" d="M73.2799 18.9386H78.4615V24.1119H73.2799V18.9386Z" fill="white"/>
<path opacity="0.12" d="M59.1168 18.9386H64.2985V24.1119H59.1168V18.9386Z" fill="white"/>
<path opacity="0.22" d="M80.3614 26.0087H85.5431V31.1819H80.3614V26.0087Z" fill="white"/>
<path opacity="0.47" d="M73.2799 26.0087H78.4615V31.1819H73.2799V26.0087Z" fill="white"/>
<path opacity="0.22" d="M66.1983 26.0087H71.3799V31.1819H66.1983V26.0087Z" fill="white"/>
<path opacity="0.32" d="M59.1168 26.0087H64.2985V31.1819H59.1168V26.0087Z" fill="white"/>
<path opacity="0.18" d="M80.3614 33.079H85.5431V38.2524H80.3614V33.079Z" fill="white"/>
<path opacity="0.28" d="M73.2799 33.079H78.4615V38.2524H73.2799V33.079Z" fill="white"/>
<path opacity="0.2" d="M59.1168 33.079H64.2985V38.2524H59.1168V33.079Z" fill="white"/>
<path opacity="0.33" d="M80.3614 40.1492H85.5431V45.3225H80.3614V40.1492Z" fill="white"/>
<path opacity="0.05" d="M73.2799 40.1492H78.4615V45.3225H73.2799V40.1492Z" fill="white"/>
<path opacity="0.08" d="M66.1983 40.1492H71.3799V45.3225H66.1983V40.1492Z" fill="white"/>
<path opacity="0.08" d="M73.2799 47.2194H78.4615V52.3927H73.2799V47.2194Z" fill="white"/>
<path opacity="0.02" d="M66.1983 47.2194H71.3799V52.3927H66.1983V47.2194Z" fill="white"/>
<path opacity="0.05" d="M80.3614 54.2896H85.5431V59.4629H80.3614V54.2896Z" fill="white"/>
<path opacity="0.2" d="M73.2799 54.2896H78.4615V59.4629H73.2799V54.2896Z" fill="white"/>
<path opacity="0.23" d="M66.1983 54.2896H71.3799V59.4629H66.1983V54.2896Z" fill="white"/>
<path opacity="0.14" d="M80.3614 61.36H85.5431V66.5333H80.3614V61.36Z" fill="white"/>
<path opacity="0.24" d="M66.1983 61.36H71.3799V66.5333H66.1983V61.36Z" fill="white"/>
<path opacity="0.23" d="M80.3614 68.4299H85.5431V73.6033H80.3614V68.4299Z" fill="white"/>
<path opacity="0.02" d="M73.2799 68.4299H78.4615V73.6033H73.2799V68.4299Z" fill="white"/>
<path opacity="0.04" d="M66.1983 68.4299H71.3799V73.6033H66.1983V68.4299Z" fill="white"/>
<path opacity="0.3" d="M59.1168 68.4299H64.2985V73.6033H59.1168V68.4299Z" fill="white"/>
<path opacity="0.4" d="M59.1168 75.3279H64.2985V80.5013H59.1168V75.3279Z" fill="white"/>
<path opacity="0.12" d="M80.3614 82.3982H85.5431V87.5716H80.3614V82.3982Z" fill="white"/>
<path opacity="0.19" d="M66.1983 82.3982H71.3799V87.5716H66.1983V82.3982Z" fill="white"/>
<path opacity="0.43" d="M59.1168 82.3982H64.2985V87.5716H59.1168V82.3982Z" fill="white"/>
<path opacity="0.42" d="M73.2799 89.4683H78.4615V94.6417H73.2799V89.4683Z" fill="white"/>
<path opacity="0.31" d="M59.1168 89.4683H64.2985V94.6417H59.1168V89.4683Z" fill="white"/>
<path opacity="0.31" d="M73.2799 96.5388H78.4615V101.712H73.2799V96.5388Z" fill="white"/>
<path opacity="0.33" d="M59.1168 96.5388H64.2985V101.712H59.1168V96.5388Z" fill="white"/>
<path opacity="0.17" d="M73.2799 103.609H78.4615V108.782H73.2799V103.609Z" fill="white"/>
<path opacity="0.01" d="M66.1983 103.609H71.3799V108.782H66.1983V103.609Z" fill="white"/>
<path opacity="0.48" d="M59.1168 103.609H64.2985V108.782H59.1168V103.609Z" fill="white"/>
<path opacity="0.28" d="M80.3614 110.679H85.5431V115.852H80.3614V110.679Z" fill="white"/>
<path opacity="0.02" d="M73.2799 110.679H78.4615V115.852H73.2799V110.679Z" fill="white"/>
<path opacity="0.17" d="M66.1983 110.679H71.3799V115.852H66.1983V110.679Z" fill="white"/>
<path opacity="0.42" d="M59.1168 110.679H64.2985V115.852H59.1168V110.679Z" fill="white"/>
<path opacity="0.11" d="M80.3614 117.749H85.5431V122.923H80.3614V117.749Z" fill="white"/>
<path opacity="0.02" d="M73.2799 117.749H78.4615V122.923H73.2799V117.749Z" fill="white"/>
<path opacity="0.3" d="M59.1168 117.749H64.2985V122.923H59.1168V117.749Z" fill="white"/>
<path opacity="0.19" d="M80.3614 124.82H85.5431V129.993H80.3614V124.82Z" fill="white"/>
<path opacity="0.05" d="M73.2799 124.82H78.4615V129.993H73.2799V124.82Z" fill="white"/>
<path opacity="0.2" d="M59.1168 124.82H64.2985V129.993H59.1168V124.82Z" fill="white"/>
<path opacity="0.27" d="M73.2799 131.89H78.4615V137.063H73.2799V131.89Z" fill="white"/>
<path opacity="0.13" d="M66.1983 131.89H71.3799V137.063H66.1983V131.89Z" fill="white"/>
<path opacity="0.46" d="M80.3614 138.96H85.5431V144.133H80.3614V138.96Z" fill="white"/>
<path opacity="0.12" d="M73.2799 138.96H78.4615V144.133H73.2799V138.96Z" fill="white"/>
<path opacity="0.04" d="M66.1983 138.96H71.3799V144.133H66.1983V138.96Z" fill="white"/>
<path opacity="0.3" d="M59.1168 138.96H64.2985V144.133H59.1168V138.96Z" fill="white"/>
<path opacity="0.08" d="M66.1983 18.9386H71.3799V24.1119H66.1983V18.9386Z" fill="white"/>
<path opacity="0.08" d="M66.1983 33.079H71.3799V38.2524H66.1983V33.079Z" fill="white"/>
<path opacity="0.01" d="M59.1168 40.1492H64.2985V45.3225H59.1168V40.1492Z" fill="white"/>
<path opacity="0.15" d="M80.3614 47.2194H85.5431V52.3927H80.3614V47.2194Z" fill="white"/>
<path opacity="0.12" d="M59.1168 47.2194H64.2985V52.3927H59.1168V47.2194Z" fill="white"/>
<path opacity="0.13" d="M73.2799 61.36H78.4615V66.5333H73.2799V61.36Z" fill="white"/>
<path opacity="0.07" d="M59.1168 61.36H64.2985V66.5333H59.1168V61.36Z" fill="white"/>
<path opacity="0.02" d="M80.3614 75.3279H85.5431V80.5013H80.3614V75.3279Z" fill="white"/>
<path opacity="0.02" d="M73.2799 75.3279H78.4615V80.5013H73.2799V75.3279Z" fill="white"/>
<path opacity="0.14" d="M66.1983 75.3279H71.3799V80.5013H66.1983V75.3279Z" fill="white"/>
<path opacity="0.09" d="M80.3614 89.4683H85.5431V94.6417H80.3614V89.4683Z" fill="white"/>
<path opacity="0.02" d="M66.1983 89.4683H71.3799V94.6417H66.1983V89.4683Z" fill="white"/>
<path opacity="0.19" d="M80.3614 96.5388H85.5431V101.712H80.3614V96.5388Z" fill="white"/>
<path opacity="0.06" d="M66.1983 96.5388H71.3799V101.712H66.1983V96.5388Z" fill="white"/>
<path opacity="0.16" d="M80.3614 103.609H85.5431V108.782H80.3614V103.609Z" fill="white"/>
<path opacity="0.04" d="M66.1983 117.749H71.3799V122.923H66.1983V117.749Z" fill="white"/>
<path opacity="0.04" d="M66.1983 124.82H71.3799V129.993H66.1983V124.82Z" fill="white"/>
<path opacity="0.18" d="M59.1168 131.89H64.2985V137.063H59.1168V131.89Z" fill="white"/>
<g opacity="0.7">
<path opacity="0.7" d="M44.7811 16.0068H50.1354V143.098H44.7811V16.0068Z" fill="#E6E6E6"/>
<path opacity="0.7" d="M35.6269 16.0068H40.9812V143.098H35.6269V16.0068Z" fill="#E6E6E6"/>
<path opacity="0.7" d="M26.3 16.0068H31.6542V143.098H26.3V16.0068Z" fill="#E6E6E6"/>
<path opacity="0.7" d="M16.9731 16.0068H22.3274V143.098H16.9731V16.0068Z" fill="#E6E6E6"/>
<path opacity="0.7" d="M7.64618 16.0068H13.0005V143.098H7.64618V16.0068Z" fill="#E6E6E6"/>
</g>
</svg>
